<svg id="Layer_1" data-name="Layer 1" xmlns="http://www.w3.org/2000/svg" xmlns:xlink="http://www.w3.org/1999/xlink" viewBox="0 0 1500 1000"><defs><style>.cls-1{fill:none;}.cls-2{clip-path:url(#clip-path);}.cls-3{fill:#1ca33f;}.cls-4{fill:#fff;}.cls-5{fill:#db1422;}</style><clipPath id="clip-path"><circle class="cls-1" cx="750" cy="500" r="387.99"/></clipPath></defs><title>Flag-of-Iran</title><g class="cls-2"><rect class="cls-3" x="132.57" y="88.38" width="1234.86" height="823.24"/><rect class="cls-4" x="132.57" y="362.01" width="1234.86" height="275.98"/><rect class="cls-5" x="132.57" y="637.99" width="1234.86" height="273.63"/><path class="cls-4" d="M802.93,350.05h-29V337.17H759.06v4.6h11v8.28H752V328.89h22V316H781v25.76h3.92V316H792v25.76h3.91V316H803Zm-54.89,0H719V337.17H704.14v12.88h-7.07V328.89h29.06v12.88H741v-4.6H730v-8.28h18Zm-32.93,0h-7.05v-8.28h7.06ZM770,324.3H697.07V316H770Z"/><path class="cls-4" d="M802.93,364.31H752V356h51Zm-54.89,0h-51V356h51Z"/><path class="cls-4" d="M802.93,684h-29V671.11H759.06v4.6h11V684H752V662.83h22V650H781v25.76h3.92V650H792v25.76h3.91V650H803ZM748,684H719V671.11H704.14V684h-7.07V662.83h29.06v12.88H741v-4.6H730v-8.28h18Zm-32.93,0h-7.05v-8.28h7.06ZM770,658.23H697.07V650H770Z"/><path class="cls-4" d="M802.93,644H752v-8.28h51ZM748,644h-51v-8.28h51Z"/><path class="cls-4" d="M912.7,350.05h-29V337.17h-14.9v4.6h11v8.28h-18V328.89h21.95V316h7.09v25.76h3.91V316h7.07v25.76h3.92V316h7.06Zm-54.9,0h-29V337.17H813.9v12.88h-7.06V328.89h29v12.88h14.9v-4.6h-11v-8.28h18.07Zm-32.93,0h-7v-8.28h7.09Zm54.88-25.75h-73V316h72.93Z"/><path class="cls-4" d="M912.7,364.31h-51V356h51Zm-54.9,0h-51V356h51Z"/><path class="cls-4" d="M912.7,684h-29V671.11h-14.9v4.6h11V684h-18V662.83h21.95V650h7.09v25.76h3.91V650h7.07v25.76h3.92V650h7.06Zm-54.9,0h-29V671.11H813.9V684h-7.06V662.83h29v12.88h14.9v-4.6h-11v-8.28h18.07Zm-32.93,0h-7v-8.28h7.09Zm54.88-25.76h-73V650h72.93Z"/><path class="cls-4" d="M912.7,644h-51v-8.28h51Zm-54.9,0h-51v-8.28h51Z"/><path class="cls-4" d="M583.39,350.05h-29V337.17h-14.9v4.6h11v8.28h-18V328.89h22V316h7.1v25.76h3.93V316h7v25.76h3.93V316h7Zm-54.88,0h-29V337.17H484.6v12.88h-7.05V328.89h29v12.88h14.89v-4.6h-11v-8.28h18.07Zm-32.93,0h-7.06v-8.28h7.1Zm54.88-25.75H477.55V316h72.91Z"/><path class="cls-4" d="M583.39,364.31h-51V356h51Zm-54.88,0h-51V356h51Z"/><path class="cls-4" d="M583.39,684h-29V671.11h-14.9v4.6h11V684h-18V662.83h22V650h7.1v25.76h3.93V650h7v25.76h3.93V650h7Zm-54.88,0h-29V671.11H484.6V684h-7.05V662.83h29v12.88h14.89v-4.6h-11v-8.28h18.07Zm-32.93,0h-7.06v-8.28h7.1Zm54.88-25.76H477.55V650h72.91Z"/><path class="cls-4" d="M583.39,644h-51v-8.28h51Zm-54.88,0h-51v-8.28h51Z"/><path class="cls-4" d="M693.2,350.05H664.15V337.17h-14.9v4.6h11v8.28h-18V328.89h22V316h7.06v25.76h3.92V316h7.05v25.76h3.92V316h7.06Zm-54.89,0H609.23V337.17H594.41v12.88h-7.06V328.89h29v12.88h14.9v-4.6h-11v-8.28h18Zm-32.93,0h-7.06v-8.28h7.07Zm54.89-25.75h-73V316h73Z"/><path class="cls-4" d="M693.2,364.31h-51V356h51Zm-54.89,0h-51V356h51Z"/><path class="cls-4" d="M693.2,684H664.15V671.11h-14.9v4.6h11V684h-18V662.83h22V650h7.06v25.76h3.92V650h7.05v25.76h3.92V650h7.06Zm-54.89,0H609.23V671.11H594.41V684h-7.06V662.83h29v12.88h14.9v-4.6h-11v-8.28h18Zm-32.93,0h-7.06v-8.28h7.07Zm54.89-25.76h-73V650h73Z"/><path class="cls-4" d="M693.2,644h-51v-8.28h51Zm-54.89,0h-51v-8.28h51Z"/><path class="cls-4" d="M1242,350.05h-29V337.17h-14.89v4.6h11v8.28h-18V328.89h22V316h7.1v25.76H1224V316h7v25.76H1235V316h7Zm-54.87,0h-29V337.17h-14.91v12.88h-7V328.89h29v12.88H1180v-4.6h-11v-8.28h18.07Zm-32.93,0h-7v-8.28h7.08Zm54.88-25.75h-72.91V316h72.91Z"/><path class="cls-4" d="M1242,364.31h-51V356h51Zm-54.87,0h-51V356h51Z"/><path class="cls-4" d="M1242,684h-29V671.11h-14.89v4.6h11V684h-18V662.83h22V650h7.1v25.76H1224V650h7v25.76H1235V650h7Zm-54.87,0h-29V671.11h-14.91V684h-7V662.83h29v12.88H1180v-4.6h-11v-8.28h18.07Zm-32.93,0h-7v-8.28h7.08Zm54.88-25.76h-72.91V650h72.91Z"/><path class="cls-4" d="M1242,644h-51v-8.28h51Zm-54.87,0h-51v-8.28h51Z"/><path class="cls-4" d="M1351.79,350.05h-29V337.17h-14.9v4.6h11v8.28h-18V328.89h22V316h7v25.76h3.93V316h7v25.76h3.94V316h7Zm-54.89,0h-29V337.17H1253v12.88h-7.06V328.89h29v12.88h14.89v-4.6h-11v-8.28h18Zm-32.93,0h-7v-8.28h7Zm54.89-25.75h-72.92V316h72.92Z"/><path class="cls-4" d="M1351.79,364.31h-51V356h51Zm-54.89,0h-51V356h51Z"/><path class="cls-4" d="M1351.79,684h-29V671.11h-14.9v4.6h11V684h-18V662.83h22V650h7v25.76h3.93V650h7v25.76h3.94V650h7Zm-54.89,0h-29V671.11H1253V684h-7.06V662.83h29v12.88h14.89v-4.6h-11v-8.28h18ZM1264,684h-7v-8.28h7Zm54.89-25.76h-72.92V650h72.92Z"/><path class="cls-4" d="M1351.79,644h-51v-8.28h51Zm-54.89,0h-51v-8.28h51Z"/><path class="cls-4" d="M1022.49,350.05h-29V337.17H978.59v4.6h11v8.28h-18V328.89h22V316h7.07v25.76h3.91V316h7.06v25.76h3.92V316h7.06Zm-54.88,0H938.56V337.17H923.7v12.88h-7.05V328.89h29v12.88h14.9v-4.6h-11v-8.28h18Zm-32.92,0h-7.05v-8.28h7.05Zm54.87-25.75H916.61V316h72.95Z"/><path class="cls-4" d="M1022.49,364.31h-51V356h51Zm-54.88,0h-51V356h51Z"/><path class="cls-4" d="M1022.49,684h-29V671.11H978.59v4.6h11V684h-18V662.83h22V650h7.07v25.76h3.91V650h7.06v25.76h3.92V650h7.06Zm-54.88,0H938.56V671.11H923.7V684h-7.05V662.83h29v12.88h14.9v-4.6h-11v-8.28h18Zm-32.92,0h-7.05v-8.28h7.05Zm54.87-25.76H916.61V650h72.95Z"/><path class="cls-4" d="M1022.49,644h-51v-8.28h51Zm-54.88,0h-51v-8.28h51Z"/><path class="cls-4" d="M1132.22,350.05h-29V337.17h-14.86v4.6h11v8.28h-18V328.89h22V316h7.07v25.76h3.91V316h7.06v25.76h3.93V316h7Zm-54.88,0h-29V337.17h-14.91v12.88h-7V328.89h29v12.88h14.9v-4.6h-11v-8.28h18Zm-32.93,0h-7.05v-8.28h7.05Zm54.88-25.75h-72.92V316h72.92Z"/><path class="cls-4" d="M1132.22,364.31h-51V356h51Zm-54.88,0h-51V356h51Z"/><path class="cls-4" d="M1132.22,684h-29V671.11h-14.86v4.6h11V684h-18V662.83h22V650h7.07v25.76h3.91V650h7.06v25.76h3.93V650h7Zm-54.88,0h-29V671.11h-14.91V684h-7V662.83h29v12.88h14.9v-4.6h-11v-8.28h18Zm-32.93,0h-7.05v-8.28h7.05Zm54.88-25.76h-72.92V650h72.92Z"/><path class="cls-4" d="M1132.22,644h-51v-8.28h51Zm-54.88,0h-51v-8.28h51Z"/><path class="cls-4" d="M473.62,350.05h-29V337.17H429.76v4.6h11v8.28h-18V328.89h22V316h7v25.76h3.93V316h7.05v25.76h3.93V316h7Zm-54.87,0h-29V337.17H374.83v12.88h-7V328.89h29v12.88h14.9v-4.6h-11v-8.28h18Zm-32.93,0h-7.07v-8.28h7.07Zm54.87-25.75h-72.9V316h72.9Z"/><path class="cls-4" d="M473.62,364.31h-51V356h51Zm-54.87,0h-51V356h51Z"/><path class="cls-4" d="M473.62,684h-29V671.11H429.76v4.6h11V684h-18V662.83h22V650h7v25.76h3.93V650h7.05v25.76h3.93V650h7Zm-54.87,0h-29V671.11H374.83V684h-7V662.83h29v12.88h14.9v-4.6h-11v-8.28h18Zm-32.93,0h-7.07v-8.28h7.07Zm54.87-25.76h-72.9V650h72.9Z"/><path class="cls-4" d="M473.62,644h-51v-8.28h51Zm-54.87,0h-51v-8.28h51Z"/><path class="cls-4" d="M254.1,350.05h-29V337.17H210.2v4.6h11v8.28h-18V328.89h22V316h7.09v25.76h3.92V316h7.06v25.76h3.92V316h7.06Zm-54.88,0h-29V337.17h-14.9v12.88h-7.06V328.89h29v12.88h14.89v-4.6h-11v-8.28h18.07Zm-32.93,0h-7v-8.28h7.09Zm54.88-25.75h-73V316h72.93Z"/><path class="cls-4" d="M254.1,364.31h-51V356h51Zm-54.88,0h-51V356h51Z"/><path class="cls-4" d="M254.1,684h-29V671.11H210.2v4.6h11V684h-18V662.83h22V650h7.09v25.76h3.92V650h7.06v25.76h3.92V650h7.06Zm-54.85,0h-29V671.11h-14.9V684h-7.06V662.83h29v12.88h14.89v-4.6h-11v-8.28h18.07Zm-32.92,0h-7.09v-8.28h7.09Zm54.87-25.76h-73V650h72.93Z"/><path class="cls-4" d="M254.1,644h-51v-8.28h51Zm-54.88,0h-51v-8.28h51Z"/><path class="cls-4" d="M363.9,350.05h-29V337.17H320v4.6h11v8.28h-18V328.89h22V316H342v25.76h3.92V316h7.06v25.76h3.92V316h7Zm-54.88,0H280V337.17H265.11v12.88h-7.05V328.89h29v12.88H302v-4.6H291v-8.28h18Zm-32.92,0H269v-8.28h7.06ZM331,324.3H258V316h73Z"/><path class="cls-4" d="M363.9,364.31h-51V356h51Zm-54.88,0H258V356h51Z"/><path class="cls-4" d="M363.9,684h-29V671.11H320v4.6h11V684h-18V662.83h22V650H342v25.76h3.92V650h7.06v25.76h3.92V650h7ZM309,684H280V671.11H265.11V684h-7.05V662.83h29v12.88H302v-4.6H291v-8.28h18Zm-32.92,0H269v-8.28h7.06ZM331,658.23H258V650h73Z"/><path class="cls-4" d="M363.9,644h-51v-8.28h51ZM309,644H258v-8.28h51Z"/><path class="cls-5" d="M804.7,401.91s97.14,76,25.74,185.17C897.71,546,903.51,433,804.7,401.91"/><path class="cls-5" d="M750,391.12c-15.47,17.44-42,.11-32.93-18.89,16,28.65,32.93,5.5,32.93,5.5s16.92,23.15,32.93-5.5c9.13,19-17.44,36.33-32.93,18.89"/><path class="cls-5" d="M750,627.77l-11.11-14.52s-26.16,8.71-60.61-3.33c28.23,0,44-4.94,49.82-7.89,0,0-63.94-34.46-62.69-104.62,3.74-71,41.52-92.59,41.52-92.59s-67.24,98,31.54,179.88l-4.35-101.31V409C739.73,407.62,750,395.8,750,395.8s10.27,11.82,15.88,13.17v74.42L761.53,584.7c98.78-81.9,31.53-179.88,31.53-179.88s37.79,21.58,41.53,92.58C835.83,567.57,771.9,602,771.9,602c5.76,2.91,21.58,7.9,49.82,7.9-34.47,12-60.62,3.29-60.62,3.29L750,627.77Z"/><path class="cls-5" d="M695.3,401.91s-97.14,76-25.74,185.17C602.29,546,596.49,433,695.3,401.91"/></g></svg>