<svg id="Layer_1" data-name="Layer 1" xmlns="http://www.w3.org/2000/svg" xmlns:xlink="http://www.w3.org/1999/xlink" viewBox="0 0 1500 1000"><defs><style>.cls-1{fill:none;}.cls-2{clip-path:url(#clip-path);}.cls-3{fill:#fff;}.cls-4{fill:#b12335;}.cls-5{fill:#3d3b6e;}</style><clipPath id="clip-path"><circle class="cls-1" cx="750" cy="500" r="387.99"/></clipPath></defs><g class="cls-2"><rect class="cls-3" x="233" y="87.01" width="1193.95" height="790.3"/><rect id="stripe" class="cls-4" x="233" y="87.01" width="1193.95" height="60.79"/><rect id="stripe-2" data-name="stripe" class="cls-4" x="233" y="208.6" width="1193.95" height="60.79"/><rect id="stripe-3" data-name="stripe" class="cls-4" x="233" y="330.18" width="1193.95" height="60.79"/><rect id="stripe-4" data-name="stripe" class="cls-4" x="233" y="451.77" width="1193.95" height="60.79"/><rect id="stripe-5" data-name="stripe" class="cls-4" x="233" y="573.35" width="1193.95" height="60.79"/><rect id="stripe-6" data-name="stripe" class="cls-4" x="233" y="694.94" width="1193.95" height="60.79"/><rect id="stripe-7" data-name="stripe" class="cls-4" x="233" y="816.53" width="1193.95" height="60.79"/><rect class="cls-5" x="233" y="87.01" width="655.53" height="418.25"/><g id="_Group_" data-name="&lt;Group&gt;"><g id="star"><polygon id="pt" class="cls-3" points="296.05 132.93 273.45 147.72 282.08 123.79 296.05 132.93"/><polygon id="pt-2" data-name="pt" class="cls-3" points="286.4 135.75 263.8 120.97 291.73 120.97 286.4 135.75"/><polygon id="pt-3" data-name="pt" class="cls-3" points="280.43 128.36 289.06 104.44 297.7 128.36 280.43 128.36"/><polygon id="pt-4" data-name="pt" class="cls-3" points="286.4 120.97 314.33 120.97 291.73 135.75 286.4 120.97"/><polygon id="pt-5" data-name="pt" class="cls-3" points="296.05 123.79 304.68 147.72 282.08 132.93 296.05 123.79"/></g><g id="star-2" data-name="star"><polygon id="pt-6" data-name="pt" class="cls-3" points="404.73 132.93 382.13 147.72 390.76 123.79 404.73 132.93"/><polygon id="pt-7" data-name="pt" class="cls-3" points="395.08 135.75 372.48 120.97 400.41 120.97 395.08 135.75"/><polygon id="pt-8" data-name="pt" class="cls-3" points="389.11 128.36 397.75 104.44 406.38 128.36 389.11 128.36"/><polygon id="pt-9" data-name="pt" class="cls-3" points="395.08 120.97 423.01 120.97 400.41 135.75 395.08 120.97"/><polygon id="pt-10" data-name="pt" class="cls-3" points="404.73 123.79 413.36 147.72 390.76 132.93 404.73 123.79"/></g><g id="star-3" data-name="star"><polygon id="pt-11" data-name="pt" class="cls-3" points="513.41 132.93 490.81 147.72 499.44 123.79 513.41 132.93"/><polygon id="pt-12" data-name="pt" class="cls-3" points="503.76 135.75 481.16 120.97 509.09 120.97 503.76 135.75"/><polygon id="pt-13" data-name="pt" class="cls-3" points="497.8 128.36 506.43 104.44 515.06 128.36 497.8 128.36"/><polygon id="pt-14" data-name="pt" class="cls-3" points="503.76 120.97 531.69 120.97 509.09 135.75 503.76 120.97"/><polygon id="pt-15" data-name="pt" class="cls-3" points="513.41 123.79 522.04 147.72 499.44 132.93 513.41 123.79"/></g><g id="star-4" data-name="star"><polygon id="pt-16" data-name="pt" class="cls-3" points="622.09 132.93 599.49 147.72 608.12 123.79 622.09 132.93"/><polygon id="pt-17" data-name="pt" class="cls-3" points="612.44 135.75 589.84 120.97 617.77 120.97 612.44 135.75"/><polygon id="pt-18" data-name="pt" class="cls-3" points="606.48 128.36 615.11 104.44 623.74 128.36 606.48 128.36"/><polygon id="pt-19" data-name="pt" class="cls-3" points="612.44 120.97 640.37 120.97 617.77 135.75 612.44 120.97"/><polygon id="pt-20" data-name="pt" class="cls-3" points="622.09 123.79 630.72 147.72 608.12 132.93 622.09 123.79"/></g><g id="s5"><g id="star-5" data-name="star"><polygon id="pt-21" data-name="pt" class="cls-3" points="730.77 132.93 708.17 147.72 716.8 123.79 730.77 132.93"/><polygon id="pt-22" data-name="pt" class="cls-3" points="721.12 135.75 698.52 120.97 726.45 120.97 721.12 135.75"/><polygon id="pt-23" data-name="pt" class="cls-3" points="715.15 128.36 723.79 104.44 732.42 128.36 715.15 128.36"/><polygon id="pt-24" data-name="pt" class="cls-3" points="721.12 120.97 749.05 120.97 726.45 135.75 721.12 120.97"/><polygon id="pt-25" data-name="pt" class="cls-3" points="730.77 123.79 739.4 147.72 716.8 132.93 730.77 123.79"/></g></g><g id="s6"><g id="star-6" data-name="star"><polygon id="pt-26" data-name="pt" class="cls-3" points="839.45 132.93 816.85 147.72 825.49 123.79 839.45 132.93"/><polygon id="pt-27" data-name="pt" class="cls-3" points="829.8 135.75 807.2 120.97 835.13 120.97 829.8 135.75"/><polygon id="pt-28" data-name="pt" class="cls-3" points="823.84 128.36 832.47 104.44 841.1 128.36 823.84 128.36"/><polygon id="pt-29" data-name="pt" class="cls-3" points="829.8 120.97 857.73 120.97 835.13 135.75 829.8 120.97"/><polygon id="pt-30" data-name="pt" class="cls-3" points="839.45 123.79 848.08 147.72 825.49 132.93 839.45 123.79"/></g></g><g id="_star_b2_" data-name="&lt;star b2&gt;"><g id="star-7" data-name="star"><polygon id="pt-31" data-name="pt" class="cls-3" points="350.39 174.87 327.79 189.66 336.42 165.74 350.39 174.87"/><polygon id="pt-32" data-name="pt" class="cls-3" points="340.74 177.7 318.14 162.91 346.07 162.91 340.74 177.7"/><polygon id="pt-33" data-name="pt" class="cls-3" points="334.77 170.3 343.41 146.38 352.04 170.3 334.77 170.3"/><polygon id="pt-34" data-name="pt" class="cls-3" points="340.74 162.91 368.67 162.91 346.07 177.7 340.74 162.91"/><polygon id="pt-35" data-name="pt" class="cls-3" points="350.39 165.74 359.02 189.66 336.42 174.87 350.39 165.74"/></g><g id="star-8" data-name="star"><polygon id="pt-36" data-name="pt" class="cls-3" points="459.07 174.87 436.47 189.66 445.1 165.74 459.07 174.87"/><polygon id="pt-37" data-name="pt" class="cls-3" points="449.42 177.7 426.82 162.91 454.75 162.91 449.42 177.7"/><polygon id="pt-38" data-name="pt" class="cls-3" points="443.45 170.3 452.09 146.38 460.72 170.3 443.45 170.3"/><polygon id="pt-39" data-name="pt" class="cls-3" points="449.42 162.91 477.35 162.91 454.75 177.7 449.42 162.91"/><polygon id="pt-40" data-name="pt" class="cls-3" points="459.07 165.74 467.7 189.66 445.1 174.87 459.07 165.74"/></g><g id="star-9" data-name="star"><polygon id="pt-41" data-name="pt" class="cls-3" points="567.75 174.87 545.15 189.66 553.78 165.74 567.75 174.87"/><polygon id="pt-42" data-name="pt" class="cls-3" points="558.1 177.7 535.5 162.91 563.43 162.91 558.1 177.7"/><polygon id="pt-43" data-name="pt" class="cls-3" points="552.13 170.3 560.77 146.38 569.4 170.3 552.13 170.3"/><polygon id="pt-44" data-name="pt" class="cls-3" points="558.1 162.91 586.03 162.91 563.43 177.7 558.1 162.91"/><polygon id="pt-45" data-name="pt" class="cls-3" points="567.75 165.74 576.38 189.66 553.78 174.87 567.75 165.74"/></g><g id="star-10" data-name="star"><polygon id="pt-46" data-name="pt" class="cls-3" points="676.43 174.87 653.83 189.66 662.46 165.74 676.43 174.87"/><polygon id="pt-47" data-name="pt" class="cls-3" points="666.78 177.7 644.18 162.91 672.11 162.91 666.78 177.7"/><polygon id="pt-48" data-name="pt" class="cls-3" points="660.81 170.3 669.45 146.38 678.08 170.3 660.81 170.3"/><polygon id="pt-49" data-name="pt" class="cls-3" points="666.78 162.91 694.71 162.91 672.11 177.7 666.78 162.91"/><polygon id="pt-50" data-name="pt" class="cls-3" points="676.43 165.74 685.06 189.66 662.46 174.87 676.43 165.74"/></g><g id="s5-2" data-name="s5"><g id="star-11" data-name="star"><polygon id="pt-51" data-name="pt" class="cls-3" points="785.11 174.87 762.51 189.66 771.14 165.74 785.11 174.87"/><polygon id="pt-52" data-name="pt" class="cls-3" points="775.46 177.7 752.86 162.91 780.79 162.91 775.46 177.7"/><polygon id="pt-53" data-name="pt" class="cls-3" points="769.5 170.3 778.13 146.38 786.76 170.3 769.5 170.3"/><polygon id="pt-54" data-name="pt" class="cls-3" points="775.46 162.91 803.39 162.91 780.79 177.7 775.46 162.91"/><polygon id="pt-55" data-name="pt" class="cls-3" points="785.11 165.74 793.74 189.66 771.14 174.87 785.11 165.74"/></g></g></g><g id="_star_b3_" data-name="&lt;star b3&gt;"><g id="star-12" data-name="star"><polygon id="pt-56" data-name="pt" class="cls-3" points="296.05 216.82 273.45 231.6 282.08 207.68 296.05 216.82"/><polygon id="pt-57" data-name="pt" class="cls-3" points="286.4 219.64 263.8 204.86 291.73 204.86 286.4 219.64"/><polygon id="pt-58" data-name="pt" class="cls-3" points="280.43 212.25 289.06 188.32 297.7 212.25 280.43 212.25"/><polygon id="pt-59" data-name="pt" class="cls-3" points="286.4 204.86 314.33 204.86 291.73 219.64 286.4 204.86"/><polygon id="pt-60" data-name="pt" class="cls-3" points="296.05 207.68 304.68 231.6 282.08 216.82 296.05 207.68"/></g><g id="star-13" data-name="star"><polygon id="pt-61" data-name="pt" class="cls-3" points="404.73 216.82 382.13 231.6 390.76 207.68 404.73 216.82"/><polygon id="pt-62" data-name="pt" class="cls-3" points="395.08 219.64 372.48 204.86 400.41 204.86 395.08 219.64"/><polygon id="pt-63" data-name="pt" class="cls-3" points="389.11 212.25 397.75 188.32 406.38 212.25 389.11 212.25"/><polygon id="pt-64" data-name="pt" class="cls-3" points="395.08 204.86 423.01 204.86 400.41 219.64 395.08 204.86"/><polygon id="pt-65" data-name="pt" class="cls-3" points="404.73 207.68 413.36 231.6 390.76 216.82 404.73 207.68"/></g><g id="star-14" data-name="star"><polygon id="pt-66" data-name="pt" class="cls-3" points="513.41 216.82 490.81 231.6 499.44 207.68 513.41 216.82"/><polygon id="pt-67" data-name="pt" class="cls-3" points="503.76 219.64 481.16 204.86 509.09 204.86 503.76 219.64"/><polygon id="pt-68" data-name="pt" class="cls-3" points="497.8 212.25 506.43 188.32 515.06 212.25 497.8 212.25"/><polygon id="pt-69" data-name="pt" class="cls-3" points="503.76 204.86 531.69 204.86 509.09 219.64 503.76 204.86"/><polygon id="pt-70" data-name="pt" class="cls-3" points="513.41 207.68 522.04 231.6 499.44 216.82 513.41 207.68"/></g><g id="star-15" data-name="star"><polygon id="pt-71" data-name="pt" class="cls-3" points="622.09 216.82 599.49 231.6 608.12 207.68 622.09 216.82"/><polygon id="pt-72" data-name="pt" class="cls-3" points="612.44 219.64 589.84 204.86 617.77 204.86 612.44 219.64"/><polygon id="pt-73" data-name="pt" class="cls-3" points="606.48 212.25 615.11 188.32 623.74 212.25 606.48 212.25"/><polygon id="pt-74" data-name="pt" class="cls-3" points="612.44 204.86 640.37 204.86 617.77 219.64 612.44 204.86"/><polygon id="pt-75" data-name="pt" class="cls-3" points="622.09 207.68 630.72 231.6 608.12 216.82 622.09 207.68"/></g><g id="s5-3" data-name="s5"><g id="star-16" data-name="star"><polygon id="pt-76" data-name="pt" class="cls-3" points="730.77 216.82 708.17 231.6 716.8 207.68 730.77 216.82"/><polygon id="pt-77" data-name="pt" class="cls-3" points="721.12 219.64 698.52 204.86 726.45 204.86 721.12 219.64"/><polygon id="pt-78" data-name="pt" class="cls-3" points="715.15 212.25 723.79 188.32 732.42 212.25 715.15 212.25"/><polygon id="pt-79" data-name="pt" class="cls-3" points="721.12 204.86 749.05 204.86 726.45 219.64 721.12 204.86"/><polygon id="pt-80" data-name="pt" class="cls-3" points="730.77 207.68 739.4 231.6 716.8 216.82 730.77 207.68"/></g></g><g id="s6-2" data-name="s6"><g id="star-17" data-name="star"><polygon id="pt-81" data-name="pt" class="cls-3" points="839.45 216.82 816.85 231.6 825.49 207.68 839.45 216.82"/><polygon id="pt-82" data-name="pt" class="cls-3" points="829.8 219.64 807.2 204.86 835.13 204.86 829.8 219.64"/><polygon id="pt-83" data-name="pt" class="cls-3" points="823.84 212.25 832.47 188.32 841.1 212.25 823.84 212.25"/><polygon id="pt-84" data-name="pt" class="cls-3" points="829.8 204.86 857.73 204.86 835.13 219.64 829.8 204.86"/><polygon id="pt-85" data-name="pt" class="cls-3" points="839.45 207.68 848.08 231.6 825.49 216.82 839.45 207.68"/></g></g></g><g id="_star_b4_" data-name="&lt;star b4&gt;"><g id="star-18" data-name="star"><polygon id="pt-86" data-name="pt" class="cls-3" points="351.73 258.9 329.13 273.69 337.76 249.76 351.73 258.9"/><polygon id="pt-87" data-name="pt" class="cls-3" points="342.08 261.73 319.48 246.94 347.41 246.94 342.08 261.73"/><polygon id="pt-88" data-name="pt" class="cls-3" points="336.12 254.33 344.75 230.41 353.38 254.33 336.12 254.33"/><polygon id="pt-89" data-name="pt" class="cls-3" points="342.08 246.94 370.01 246.94 347.41 261.73 342.08 246.94"/><polygon id="pt-90" data-name="pt" class="cls-3" points="351.73 249.76 360.36 273.69 337.76 258.9 351.73 249.76"/></g><g id="star-19" data-name="star"><polygon id="pt-91" data-name="pt" class="cls-3" points="460.41 258.9 437.81 273.69 446.44 249.76 460.41 258.9"/><polygon id="pt-92" data-name="pt" class="cls-3" points="450.76 261.73 428.16 246.94 456.09 246.94 450.76 261.73"/><polygon id="pt-93" data-name="pt" class="cls-3" points="444.79 254.33 453.43 230.41 462.06 254.33 444.79 254.33"/><polygon id="pt-94" data-name="pt" class="cls-3" points="450.76 246.94 478.69 246.94 456.09 261.73 450.76 246.94"/><polygon id="pt-95" data-name="pt" class="cls-3" points="460.41 249.76 469.04 273.69 446.44 258.9 460.41 249.76"/></g><g id="star-20" data-name="star"><polygon id="pt-96" data-name="pt" class="cls-3" points="569.09 258.9 546.49 273.69 555.12 249.76 569.09 258.9"/><polygon id="pt-97" data-name="pt" class="cls-3" points="559.44 261.73 536.84 246.94 564.77 246.94 559.44 261.73"/><polygon id="pt-98" data-name="pt" class="cls-3" points="553.48 254.33 562.11 230.41 570.74 254.33 553.48 254.33"/><polygon id="pt-99" data-name="pt" class="cls-3" points="559.44 246.94 587.37 246.94 564.77 261.73 559.44 246.94"/><polygon id="pt-100" data-name="pt" class="cls-3" points="569.09 249.76 577.72 273.69 555.12 258.9 569.09 249.76"/></g><g id="star-21" data-name="star"><polygon id="pt-101" data-name="pt" class="cls-3" points="677.77 258.9 655.17 273.69 663.8 249.76 677.77 258.9"/><polygon id="pt-102" data-name="pt" class="cls-3" points="668.12 261.73 645.52 246.94 673.45 246.94 668.12 261.73"/><polygon id="pt-103" data-name="pt" class="cls-3" points="662.15 254.33 670.79 230.41 679.42 254.33 662.15 254.33"/><polygon id="pt-104" data-name="pt" class="cls-3" points="668.12 246.94 696.05 246.94 673.45 261.73 668.12 246.94"/><polygon id="pt-105" data-name="pt" class="cls-3" points="677.77 249.76 686.4 273.69 663.8 258.9 677.77 249.76"/></g><g id="s5-4" data-name="s5"><g id="star-22" data-name="star"><polygon id="pt-106" data-name="pt" class="cls-3" points="786.45 258.9 763.85 273.69 772.49 249.76 786.45 258.9"/><polygon id="pt-107" data-name="pt" class="cls-3" points="776.8 261.73 754.2 246.94 782.13 246.94 776.8 261.73"/><polygon id="pt-108" data-name="pt" class="cls-3" points="770.84 254.33 779.47 230.41 788.1 254.33 770.84 254.33"/><polygon id="pt-109" data-name="pt" class="cls-3" points="776.8 246.94 804.74 246.94 782.13 261.73 776.8 246.94"/><polygon id="pt-110" data-name="pt" class="cls-3" points="786.45 249.76 795.08 273.69 772.49 258.9 786.45 249.76"/></g></g></g><g id="_star_b3_2" data-name="&lt;star b3&gt;"><g id="star-23" data-name="star"><polygon id="pt-111" data-name="pt" class="cls-3" points="297.7 300.5 275.1 315.28 283.73 291.36 297.7 300.5"/><polygon id="pt-112" data-name="pt" class="cls-3" points="288.05 303.32 265.45 288.53 293.38 288.53 288.05 303.32"/><polygon id="pt-113" data-name="pt" class="cls-3" points="282.08 295.93 290.71 272 299.35 295.93 282.08 295.93"/><polygon id="pt-114" data-name="pt" class="cls-3" points="288.05 288.53 315.98 288.53 293.38 303.32 288.05 288.53"/><polygon id="pt-115" data-name="pt" class="cls-3" points="297.7 291.36 306.33 315.28 283.73 300.5 297.7 291.36"/></g><g id="star-24" data-name="star"><polygon id="pt-116" data-name="pt" class="cls-3" points="406.38 300.5 383.78 315.28 392.41 291.36 406.38 300.5"/><polygon id="pt-117" data-name="pt" class="cls-3" points="396.73 303.32 374.13 288.53 402.06 288.53 396.73 303.32"/><polygon id="pt-118" data-name="pt" class="cls-3" points="390.76 295.93 399.39 272 408.03 295.93 390.76 295.93"/><polygon id="pt-119" data-name="pt" class="cls-3" points="396.73 288.53 424.66 288.53 402.06 303.32 396.73 288.53"/><polygon id="pt-120" data-name="pt" class="cls-3" points="406.38 291.36 415.01 315.28 392.41 300.5 406.38 291.36"/></g><g id="star-25" data-name="star"><polygon id="pt-121" data-name="pt" class="cls-3" points="515.06 300.5 492.46 315.28 501.09 291.36 515.06 300.5"/><polygon id="pt-122" data-name="pt" class="cls-3" points="505.41 303.32 482.81 288.53 510.74 288.53 505.41 303.32"/><polygon id="pt-123" data-name="pt" class="cls-3" points="499.44 295.93 508.07 272 516.71 295.93 499.44 295.93"/><polygon id="pt-124" data-name="pt" class="cls-3" points="505.41 288.53 533.34 288.53 510.74 303.32 505.41 288.53"/><polygon id="pt-125" data-name="pt" class="cls-3" points="515.06 291.36 523.69 315.28 501.09 300.5 515.06 291.36"/></g><g id="star-26" data-name="star"><polygon id="pt-126" data-name="pt" class="cls-3" points="623.74 300.5 601.14 315.28 609.77 291.36 623.74 300.5"/><polygon id="pt-127" data-name="pt" class="cls-3" points="614.09 303.32 591.49 288.53 619.42 288.53 614.09 303.32"/><polygon id="pt-128" data-name="pt" class="cls-3" points="608.12 295.93 616.76 272 625.39 295.93 608.12 295.93"/><polygon id="pt-129" data-name="pt" class="cls-3" points="614.09 288.53 642.02 288.53 619.42 303.32 614.09 288.53"/><polygon id="pt-130" data-name="pt" class="cls-3" points="623.74 291.36 632.37 315.28 609.77 300.5 623.74 291.36"/></g><g id="s5-5" data-name="s5"><g id="star-27" data-name="star"><polygon id="pt-131" data-name="pt" class="cls-3" points="732.42 300.5 709.82 315.28 718.45 291.36 732.42 300.5"/><polygon id="pt-132" data-name="pt" class="cls-3" points="722.77 303.32 700.17 288.53 728.1 288.53 722.77 303.32"/><polygon id="pt-133" data-name="pt" class="cls-3" points="716.8 295.93 725.44 272 734.07 295.93 716.8 295.93"/><polygon id="pt-134" data-name="pt" class="cls-3" points="722.77 288.53 750.7 288.53 728.1 303.32 722.77 288.53"/><polygon id="pt-135" data-name="pt" class="cls-3" points="732.42 291.36 741.05 315.28 718.45 300.5 732.42 291.36"/></g></g><g id="s6-3" data-name="s6"><g id="star-28" data-name="star"><polygon id="pt-136" data-name="pt" class="cls-3" points="841.1 300.5 818.5 315.28 827.13 291.36 841.1 300.5"/><polygon id="pt-137" data-name="pt" class="cls-3" points="831.45 303.32 808.85 288.53 836.78 288.53 831.45 303.32"/><polygon id="pt-138" data-name="pt" class="cls-3" points="825.48 295.93 834.12 272 842.75 295.93 825.48 295.93"/><polygon id="pt-139" data-name="pt" class="cls-3" points="831.45 288.53 859.38 288.53 836.78 303.32 831.45 288.53"/><polygon id="pt-140" data-name="pt" class="cls-3" points="841.1 291.36 849.73 315.28 827.13 300.5 841.1 291.36"/></g></g></g><g id="_star_b4_2" data-name="&lt;star b4&gt;"><g id="star-29" data-name="star"><polygon id="pt-141" data-name="pt" class="cls-3" points="352.05 341.36 329.45 356.14 338.08 332.22 352.05 341.36"/><polygon id="pt-142" data-name="pt" class="cls-3" points="342.4 344.18 319.8 329.4 347.74 329.4 342.4 344.18"/><polygon id="pt-143" data-name="pt" class="cls-3" points="336.44 336.79 345.07 312.87 353.7 336.79 336.44 336.79"/><polygon id="pt-144" data-name="pt" class="cls-3" points="342.4 329.4 370.33 329.4 347.74 344.18 342.4 329.4"/><polygon id="pt-145" data-name="pt" class="cls-3" points="352.05 332.22 360.68 356.14 338.08 341.36 352.05 332.22"/></g><g id="star-30" data-name="star"><polygon id="pt-146" data-name="pt" class="cls-3" points="460.73 341.36 438.13 356.14 446.76 332.22 460.73 341.36"/><polygon id="pt-147" data-name="pt" class="cls-3" points="451.08 344.18 428.48 329.4 456.42 329.4 451.08 344.18"/><polygon id="pt-148" data-name="pt" class="cls-3" points="445.12 336.79 453.75 312.87 462.38 336.79 445.12 336.79"/><polygon id="pt-149" data-name="pt" class="cls-3" points="451.08 329.4 479.01 329.4 456.42 344.18 451.08 329.4"/><polygon id="pt-150" data-name="pt" class="cls-3" points="460.73 332.22 469.37 356.14 446.76 341.36 460.73 332.22"/></g><g id="star-31" data-name="star"><polygon id="pt-151" data-name="pt" class="cls-3" points="569.41 341.36 546.82 356.14 555.45 332.22 569.41 341.36"/><polygon id="pt-152" data-name="pt" class="cls-3" points="559.76 344.18 537.16 329.4 565.1 329.4 559.76 344.18"/><polygon id="pt-153" data-name="pt" class="cls-3" points="553.8 336.79 562.43 312.87 571.06 336.79 553.8 336.79"/><polygon id="pt-154" data-name="pt" class="cls-3" points="559.76 329.4 587.7 329.4 565.1 344.18 559.76 329.4"/><polygon id="pt-155" data-name="pt" class="cls-3" points="569.41 332.22 578.04 356.14 555.45 341.36 569.41 332.22"/></g><g id="star-32" data-name="star"><polygon id="pt-156" data-name="pt" class="cls-3" points="678.09 341.36 655.5 356.14 664.13 332.22 678.09 341.36"/><polygon id="pt-157" data-name="pt" class="cls-3" points="668.44 344.18 645.84 329.4 673.78 329.4 668.44 344.18"/><polygon id="pt-158" data-name="pt" class="cls-3" points="662.48 336.79 671.11 312.87 679.74 336.79 662.48 336.79"/><polygon id="pt-159" data-name="pt" class="cls-3" points="668.44 329.4 696.38 329.4 673.78 344.18 668.44 329.4"/><polygon id="pt-160" data-name="pt" class="cls-3" points="678.09 332.22 686.73 356.14 664.13 341.36 678.09 332.22"/></g><g id="s5-6" data-name="s5"><g id="star-33" data-name="star"><polygon id="pt-161" data-name="pt" class="cls-3" points="786.77 341.36 764.18 356.14 772.81 332.22 786.77 341.36"/><polygon id="pt-162" data-name="pt" class="cls-3" points="777.12 344.18 754.52 329.4 782.46 329.4 777.12 344.18"/><polygon id="pt-163" data-name="pt" class="cls-3" points="771.16 336.79 779.79 312.87 788.42 336.79 771.16 336.79"/><polygon id="pt-164" data-name="pt" class="cls-3" points="777.12 329.4 805.06 329.4 782.46 344.18 777.12 329.4"/><polygon id="pt-165" data-name="pt" class="cls-3" points="786.77 332.22 795.41 356.14 772.81 341.36 786.77 332.22"/></g></g></g><g id="_star_b3_3" data-name="&lt;star b3&gt;"><g id="star-34" data-name="star"><polygon id="pt-166" data-name="pt" class="cls-3" points="298.72 383.06 276.12 397.84 284.75 373.92 298.72 383.06"/><polygon id="pt-167" data-name="pt" class="cls-3" points="289.06 385.88 266.47 371.09 294.4 371.09 289.06 385.88"/><polygon id="pt-168" data-name="pt" class="cls-3" points="283.1 378.49 291.73 354.56 300.36 378.49 283.1 378.49"/><polygon id="pt-169" data-name="pt" class="cls-3" points="289.06 371.09 317 371.09 294.4 385.88 289.06 371.09"/><polygon id="pt-170" data-name="pt" class="cls-3" points="298.72 373.92 307.35 397.84 284.75 383.06 298.72 373.92"/></g><g id="star-35" data-name="star"><polygon id="pt-171" data-name="pt" class="cls-3" points="407.39 383.06 384.8 397.84 393.43 373.92 407.39 383.06"/><polygon id="pt-172" data-name="pt" class="cls-3" points="397.75 385.88 375.15 371.09 403.08 371.09 397.75 385.88"/><polygon id="pt-173" data-name="pt" class="cls-3" points="391.78 378.49 400.41 354.56 409.04 378.49 391.78 378.49"/><polygon id="pt-174" data-name="pt" class="cls-3" points="397.75 371.09 425.68 371.09 403.08 385.88 397.75 371.09"/><polygon id="pt-175" data-name="pt" class="cls-3" points="407.39 373.92 416.03 397.84 393.43 383.06 407.39 373.92"/></g><g id="star-36" data-name="star"><polygon id="pt-176" data-name="pt" class="cls-3" points="516.08 383.06 493.48 397.84 502.11 373.92 516.08 383.06"/><polygon id="pt-177" data-name="pt" class="cls-3" points="506.43 385.88 483.83 371.09 511.76 371.09 506.43 385.88"/><polygon id="pt-178" data-name="pt" class="cls-3" points="500.46 378.49 509.09 354.56 517.73 378.49 500.46 378.49"/><polygon id="pt-179" data-name="pt" class="cls-3" points="506.43 371.09 534.36 371.09 511.76 385.88 506.43 371.09"/><polygon id="pt-180" data-name="pt" class="cls-3" points="516.08 373.92 524.71 397.84 502.11 383.06 516.08 373.92"/></g><g id="star-37" data-name="star"><polygon id="pt-181" data-name="pt" class="cls-3" points="624.76 383.06 602.16 397.84 610.79 373.92 624.76 383.06"/><polygon id="pt-182" data-name="pt" class="cls-3" points="615.11 385.88 592.51 371.09 620.44 371.09 615.11 385.88"/><polygon id="pt-183" data-name="pt" class="cls-3" points="609.14 378.49 617.77 354.56 626.4 378.49 609.14 378.49"/><polygon id="pt-184" data-name="pt" class="cls-3" points="615.11 371.09 643.04 371.09 620.44 385.88 615.11 371.09"/><polygon id="pt-185" data-name="pt" class="cls-3" points="624.76 373.92 633.39 397.84 610.79 383.06 624.76 373.92"/></g><g id="s5-7" data-name="s5"><g id="star-38" data-name="star"><polygon id="pt-186" data-name="pt" class="cls-3" points="733.44 383.06 710.84 397.84 719.47 373.92 733.44 383.06"/><polygon id="pt-187" data-name="pt" class="cls-3" points="723.79 385.88 701.19 371.09 729.12 371.09 723.79 385.88"/><polygon id="pt-188" data-name="pt" class="cls-3" points="717.82 378.49 726.45 354.56 735.09 378.49 717.82 378.49"/><polygon id="pt-189" data-name="pt" class="cls-3" points="723.79 371.09 751.72 371.09 729.12 385.88 723.79 371.09"/><polygon id="pt-190" data-name="pt" class="cls-3" points="733.44 373.92 742.07 397.84 719.47 383.06 733.44 373.92"/></g></g><g id="s6-4" data-name="s6"><g id="star-39" data-name="star"><polygon id="pt-191" data-name="pt" class="cls-3" points="842.12 383.06 819.52 397.84 828.15 373.92 842.12 383.06"/><polygon id="pt-192" data-name="pt" class="cls-3" points="832.47 385.88 809.87 371.09 837.8 371.09 832.47 385.88"/><polygon id="pt-193" data-name="pt" class="cls-3" points="826.5 378.49 835.13 354.56 843.76 378.49 826.5 378.49"/><polygon id="pt-194" data-name="pt" class="cls-3" points="832.47 371.09 860.4 371.09 837.8 385.88 832.47 371.09"/><polygon id="pt-195" data-name="pt" class="cls-3" points="842.12 373.92 850.75 397.84 828.15 383.06 842.12 373.92"/></g></g></g><g id="_star_b4_3" data-name="&lt;star b4&gt;"><g id="star-40" data-name="star"><polygon id="pt-196" data-name="pt" class="cls-3" points="351.73 424.76 329.13 439.55 337.76 415.62 351.73 424.76"/><polygon id="pt-197" data-name="pt" class="cls-3" points="342.08 427.59 319.48 412.8 347.42 412.8 342.08 427.59"/><polygon id="pt-198" data-name="pt" class="cls-3" points="336.12 420.19 344.75 396.27 353.38 420.19 336.12 420.19"/><polygon id="pt-199" data-name="pt" class="cls-3" points="342.08 412.8 370.01 412.8 347.42 427.59 342.08 412.8"/><polygon id="pt-200" data-name="pt" class="cls-3" points="351.73 415.62 360.36 439.55 337.76 424.76 351.73 415.62"/></g><g id="star-41" data-name="star"><polygon id="pt-201" data-name="pt" class="cls-3" points="460.41 424.76 437.81 439.55 446.44 415.62 460.41 424.76"/><polygon id="pt-202" data-name="pt" class="cls-3" points="450.76 427.59 428.16 412.8 456.1 412.8 450.76 427.59"/><polygon id="pt-203" data-name="pt" class="cls-3" points="444.8 420.19 453.43 396.27 462.06 420.19 444.8 420.19"/><polygon id="pt-204" data-name="pt" class="cls-3" points="450.76 412.8 478.69 412.8 456.1 427.59 450.76 412.8"/><polygon id="pt-205" data-name="pt" class="cls-3" points="460.41 415.62 469.04 439.55 446.44 424.76 460.41 415.62"/></g><g id="star-42" data-name="star"><polygon id="pt-206" data-name="pt" class="cls-3" points="569.09 424.76 546.49 439.55 555.13 415.62 569.09 424.76"/><polygon id="pt-207" data-name="pt" class="cls-3" points="559.44 427.59 536.84 412.8 564.78 412.8 559.44 427.59"/><polygon id="pt-208" data-name="pt" class="cls-3" points="553.48 420.19 562.11 396.27 570.74 420.19 553.48 420.19"/><polygon id="pt-209" data-name="pt" class="cls-3" points="559.44 412.8 587.37 412.8 564.78 427.59 559.44 412.8"/><polygon id="pt-210" data-name="pt" class="cls-3" points="569.09 415.62 577.72 439.55 555.13 424.76 569.09 415.62"/></g><g id="star-43" data-name="star"><polygon id="pt-211" data-name="pt" class="cls-3" points="677.77 424.76 655.17 439.55 663.8 415.62 677.77 424.76"/><polygon id="pt-212" data-name="pt" class="cls-3" points="668.12 427.59 645.52 412.8 673.46 412.8 668.12 427.59"/><polygon id="pt-213" data-name="pt" class="cls-3" points="662.15 420.19 670.79 396.27 679.42 420.19 662.15 420.19"/><polygon id="pt-214" data-name="pt" class="cls-3" points="668.12 412.8 696.05 412.8 673.46 427.59 668.12 412.8"/><polygon id="pt-215" data-name="pt" class="cls-3" points="677.77 415.62 686.4 439.55 663.8 424.76 677.77 415.62"/></g><g id="s5-8" data-name="s5"><g id="star-44" data-name="star"><polygon id="pt-216" data-name="pt" class="cls-3" points="786.45 424.76 763.86 439.55 772.49 415.62 786.45 424.76"/><polygon id="pt-217" data-name="pt" class="cls-3" points="776.8 427.59 754.2 412.8 782.14 412.8 776.8 427.59"/><polygon id="pt-218" data-name="pt" class="cls-3" points="770.84 420.19 779.47 396.27 788.1 420.19 770.84 420.19"/><polygon id="pt-219" data-name="pt" class="cls-3" points="776.8 412.8 804.74 412.8 782.14 427.59 776.8 412.8"/><polygon id="pt-220" data-name="pt" class="cls-3" points="786.45 415.62 795.09 439.55 772.49 424.76 786.45 415.62"/></g></g></g><g id="_star_b3_4" data-name="&lt;star b3&gt;"><g id="star-45" data-name="star"><polygon id="pt-221" data-name="pt" class="cls-3" points="297.39 466.59 274.79 481.37 283.42 457.45 297.39 466.59"/><polygon id="pt-222" data-name="pt" class="cls-3" points="287.74 469.41 265.14 454.63 293.07 454.63 287.74 469.41"/><polygon id="pt-223" data-name="pt" class="cls-3" points="281.77 462.02 290.4 438.1 299.04 462.02 281.77 462.02"/><polygon id="pt-224" data-name="pt" class="cls-3" points="287.74 454.63 315.67 454.63 293.07 469.41 287.74 454.63"/><polygon id="pt-225" data-name="pt" class="cls-3" points="297.39 457.45 306.02 481.37 283.42 466.59 297.39 457.45"/></g><g id="star-46" data-name="star"><polygon id="pt-226" data-name="pt" class="cls-3" points="406.07 466.59 383.47 481.37 392.1 457.45 406.07 466.59"/><polygon id="pt-227" data-name="pt" class="cls-3" points="396.42 469.41 373.82 454.63 401.75 454.63 396.42 469.41"/><polygon id="pt-228" data-name="pt" class="cls-3" points="390.45 462.02 399.08 438.1 407.72 462.02 390.45 462.02"/><polygon id="pt-229" data-name="pt" class="cls-3" points="396.42 454.63 424.35 454.63 401.75 469.41 396.42 454.63"/><polygon id="pt-230" data-name="pt" class="cls-3" points="406.07 457.45 414.7 481.37 392.1 466.59 406.07 457.45"/></g><g id="star-47" data-name="star"><polygon id="pt-231" data-name="pt" class="cls-3" points="514.75 466.59 492.15 481.37 500.78 457.45 514.75 466.59"/><polygon id="pt-232" data-name="pt" class="cls-3" points="505.1 469.41 482.5 454.63 510.43 454.63 505.1 469.41"/><polygon id="pt-233" data-name="pt" class="cls-3" points="499.13 462.02 507.77 438.1 516.4 462.02 499.13 462.02"/><polygon id="pt-234" data-name="pt" class="cls-3" points="505.1 454.63 533.03 454.63 510.43 469.41 505.1 454.63"/><polygon id="pt-235" data-name="pt" class="cls-3" points="514.75 457.45 523.38 481.37 500.78 466.59 514.75 457.45"/></g><g id="star-48" data-name="star"><polygon id="pt-236" data-name="pt" class="cls-3" points="623.43 466.59 600.83 481.37 609.46 457.45 623.43 466.59"/><polygon id="pt-237" data-name="pt" class="cls-3" points="613.78 469.41 591.18 454.63 619.12 454.63 613.78 469.41"/><polygon id="pt-238" data-name="pt" class="cls-3" points="607.82 462.02 616.45 438.1 625.08 462.02 607.82 462.02"/><polygon id="pt-239" data-name="pt" class="cls-3" points="613.78 454.63 641.71 454.63 619.12 469.41 613.78 454.63"/><polygon id="pt-240" data-name="pt" class="cls-3" points="623.43 457.45 632.06 481.37 609.46 466.59 623.43 457.45"/></g><g id="s5-9" data-name="s5"><g id="star-49" data-name="star"><polygon id="pt-241" data-name="pt" class="cls-3" points="732.11 466.59 709.51 481.37 718.14 457.45 732.11 466.59"/><polygon id="pt-242" data-name="pt" class="cls-3" points="722.46 469.41 699.86 454.63 727.79 454.63 722.46 469.41"/><polygon id="pt-243" data-name="pt" class="cls-3" points="716.5 462.02 725.13 438.1 733.76 462.02 716.5 462.02"/><polygon id="pt-244" data-name="pt" class="cls-3" points="722.46 454.63 750.39 454.63 727.79 469.41 722.46 454.63"/><polygon id="pt-245" data-name="pt" class="cls-3" points="732.11 457.45 740.74 481.37 718.14 466.59 732.11 457.45"/></g></g><g id="s6-5" data-name="s6"><g id="star-50" data-name="star"><polygon id="pt-246" data-name="pt" class="cls-3" points="840.79 466.59 818.19 481.37 826.83 457.45 840.79 466.59"/><polygon id="pt-247" data-name="pt" class="cls-3" points="831.14 469.41 808.54 454.63 836.48 454.63 831.14 469.41"/><polygon id="pt-248" data-name="pt" class="cls-3" points="825.17 462.02 833.81 438.1 842.44 462.02 825.17 462.02"/><polygon id="pt-249" data-name="pt" class="cls-3" points="831.14 454.63 859.08 454.63 836.48 469.41 831.14 454.63"/><polygon id="pt-250" data-name="pt" class="cls-3" points="840.79 457.45 849.42 481.37 826.83 466.59 840.79 457.45"/></g></g></g></g></g></svg>